<svg xmlns="http://www.w3.org/2000/svg" viewBox="0 0 1419.27 186.5"><defs><style>.a{fill:#3c4eb5;}</style></defs><title>liadihome_logo</title><path class="a" d="M66.75,174.6l26.64,68.9,29.86-.46V200.78s.92-17.46,21.13-17.46c18.37,0,18.83,16.08,18.83,16.08v44.1h29.4l23.89-68.9L141.16,96.5Z" transform="translate(-40.57 -57)"/><path class="a" d="M240.64,158.65l.67-.59L141.16,57l-51.9,52.38V84.1h5.51V78.59H54.35V84.1H61.7v53.1L41,158.06l.66.59a11.47,11.47,0,0,0,16.41,14.68l.39.35,82.68-84.51,82.69,84.51.39-.35a11.46,11.46,0,0,0,17.52-9.76A11.28,11.28,0,0,0,240.64,158.65Z" transform="translate(-40.57 -57)"/><path d="M384.44,226q8.74,0,15.36-.67a47,47,0,0,0,11.61-2.53,25.47,25.47,0,0,0,8.58-5.16,28.5,28.5,0,0,0,6.17-8.58,63.55,63.55,0,0,0,4.43-12.84q1.85-7.56,3.31-18h7.85l-2.47,56.75H313.79v-9h22.43v-145H313.79V72h66.72v9H358.08V226Z" transform="translate(-40.57 -57)"/><path d="M492.78,226H509.6v9H455.77v-9h16.82V148.34H455.77v-9h37Zm-10.1-118.21a14.32,14.32,0,0,1-5.33-.95,12.84,12.84,0,0,1-4.26-2.75,12.58,12.58,0,0,1-2.86-4.2,14,14,0,0,1-1-5.44,13.58,13.58,0,0,1,3.93-9.65,12.83,12.83,0,0,1,4.26-2.8,13.81,13.81,0,0,1,5.27-1,14.38,14.38,0,0,1,5.27,1,12.57,12.57,0,0,1,7.18,6.95,14,14,0,0,1,1,5.44,13.68,13.68,0,0,1-1.07,5.49,12.81,12.81,0,0,1-2.86,4.21,13.25,13.25,0,0,1-4.26,2.75A13.81,13.81,0,0,1,482.68,107.74Z" transform="translate(-40.57 -57)"/><path d="M619.61,234.92a66.46,66.46,0,0,1-8.74,1.12q-4,.22-6.39.23a41.75,41.75,0,0,1-9.82-1,15.75,15.75,0,0,1-6.11-2.74,10.34,10.34,0,0,1-3.25-4.38,19.17,19.17,0,0,1-1.24-5.72h-.56a39.74,39.74,0,0,1-6.73,7.4,32.78,32.78,0,0,1-7.51,4.83,35.86,35.86,0,0,1-8,2.58,44,44,0,0,1-8.24.78,37.53,37.53,0,0,1-12.22-1.85,25.77,25.77,0,0,1-9.09-5.21,22,22,0,0,1-5.61-8,26.82,26.82,0,0,1-1.9-10.26q0-15.6,15.31-23.72t44.13-8.7c.07-3.36.13-6.39.16-9.08s.06-5.34.06-8q0-10.2-4.21-14.3t-13.28-4.09a39.83,39.83,0,0,0-10.83,1.34,24.09,24.09,0,0,0-7.79,3.59,17.68,17.68,0,0,1,4,5.44A13.72,13.72,0,0,1,553,160.9a10.59,10.59,0,0,1-11.33,11,14.39,14.39,0,0,1-4.37-.67,9.61,9.61,0,0,1-3.7-2.13,10.78,10.78,0,0,1-2.53-3.65,12.72,12.72,0,0,1-1-5.1,17.46,17.46,0,0,1,2.52-8.91,24.15,24.15,0,0,1,7.52-7.69,41.66,41.66,0,0,1,12.45-5.38,67.35,67.35,0,0,1,17.44-2,58.94,58.94,0,0,1,14.29,1.57,26,26,0,0,1,10.55,5.22,22.34,22.34,0,0,1,6.5,9.7,44.6,44.6,0,0,1,2.19,15q0,2.23-.06,7.34c0,3.4-.09,7.16-.17,11.27s-.13,8.28-.16,12.51-.06,7.94-.06,11.16.07,6,.22,8.24a15.34,15.34,0,0,0,1.13,5.27,5.41,5.41,0,0,0,2.69,2.8,12,12,0,0,0,5,.85,53.5,53.5,0,0,0,7.4-.68Zm-36-46.2a120,120,0,0,0-19.74,1.85q-7.51,1.52-11.67,4.26a13.78,13.78,0,0,0-5.6,6.67,25.5,25.5,0,0,0-1.46,9q0,8.75,3.64,13.07a12.44,12.44,0,0,0,10,4.32,24.73,24.73,0,0,0,7.8-1.46,24.26,24.26,0,0,0,8.13-4.77,25.69,25.69,0,0,0,6.33-8.69,31.42,31.42,0,0,0,2.53-13.35Z" transform="translate(-40.57 -57)"/><path d="M729.41,226h16.82v9h-37V221.35h-.45a37,37,0,0,1-6.33,8,32.32,32.32,0,0,1-7.24,5.16,29.25,29.25,0,0,1-8,2.75,45.46,45.46,0,0,1-8.41.78,43.34,43.34,0,0,1-19-4,41.41,41.41,0,0,1-14-10.77,46.79,46.79,0,0,1-8.69-15.87,64.55,64.55,0,0,1,.28-39.64,49.25,49.25,0,0,1,9.25-16.43,44.12,44.12,0,0,1,14.35-11,42.13,42.13,0,0,1,18.56-4,35.16,35.16,0,0,1,17.28,4.1,31.62,31.62,0,0,1,11.88,11.49h.45v-71H691.28V72h38.13Zm-73-38.58a100.47,100.47,0,0,0,1.79,20.92q1.8,8.13,5,12.78a16.92,16.92,0,0,0,7.8,6.39A27.46,27.46,0,0,0,681,229.2q8.52,0,14-3.7a26.58,26.58,0,0,0,8.64-9.76A44.38,44.38,0,0,0,708,202a98.84,98.84,0,0,0,1.23-15.65A77.57,77.57,0,0,0,707.15,167a35.59,35.59,0,0,0-5.78-12.72,21.46,21.46,0,0,0-8.8-7,30.39,30.39,0,0,0-21.14-.45,17.13,17.13,0,0,0-8,6.34q-3.37,4.65-5.22,12.84T656.4,187.37Z" transform="translate(-40.57 -57)"/><path d="M795,226h16.82v9H758v-9h16.82V148.34H758v-9h37Zm-10.1-118.21a14.23,14.23,0,0,1-5.32-.95,12.78,12.78,0,0,1-4.27-2.75,12.58,12.58,0,0,1-2.86-4.2,14,14,0,0,1-1-5.44,13.58,13.58,0,0,1,3.93-9.65,12.83,12.83,0,0,1,4.26-2.8,13.81,13.81,0,0,1,5.27-1,14.38,14.38,0,0,1,5.27,1,12.63,12.63,0,0,1,4.32,2.74,12.43,12.43,0,0,1,2.86,4.21,14,14,0,0,1,1,5.44,13.85,13.85,0,0,1-1.06,5.49,13,13,0,0,1-2.87,4.21,13.25,13.25,0,0,1-4.26,2.75A13.81,13.81,0,0,1,784.92,107.74Z" transform="translate(-40.57 -57)"/><path class="a" d="M906.6,226v-145H884.17V72H950.9v9H928.47v64.94h75V80.94H981.07V72h66.73v9h-22.43V226h22.43v9H981.07v-9h22.43V155.07h-75V226H950.9v9H884.17v-9Z" transform="translate(-40.57 -57)"/><path class="a" d="M1064.62,188a59.71,59.71,0,0,1,3.31-20,48,48,0,0,1,9.7-16.49,45.79,45.79,0,0,1,15.64-11.15,51.48,51.48,0,0,1,21-4.1,50.53,50.53,0,0,1,20.64,4,43.24,43.24,0,0,1,15,10.83,46.29,46.29,0,0,1,9.14,15.92,61.89,61.89,0,0,1-.23,39.25,47.92,47.92,0,0,1-9.7,16.49A45.82,45.82,0,0,1,1133.54,234a51.47,51.47,0,0,1-21,4.09,50.5,50.5,0,0,1-20.64-4,43.09,43.09,0,0,1-15-10.82,46.25,46.25,0,0,1-9.14-15.93A59.71,59.71,0,0,1,1064.62,188Zm22.21-.45a102.12,102.12,0,0,0,1.68,20.3,36.18,36.18,0,0,0,4.93,12.9,17.58,17.58,0,0,0,8.19,6.78,31.11,31.11,0,0,0,11.55,2,30.79,30.79,0,0,0,11.55-2,18.45,18.45,0,0,0,8.41-6.9q3.38-4.87,5.11-13.12a103.38,103.38,0,0,0,1.73-20.69,102.12,102.12,0,0,0-1.68-20.3,36.52,36.52,0,0,0-4.93-12.9,17.65,17.65,0,0,0-8.25-6.78,34.6,34.6,0,0,0-23.1,0,18.51,18.51,0,0,0-8.35,6.9q-3.37,4.88-5.11,13.12A102.78,102.78,0,0,0,1086.83,187.59Z" transform="translate(-40.57 -57)"/><path class="a" d="M1214.9,226H1230v9h-52.15v-9h16.82V148.34h-16.82v-9h37v16.26h.45a34.47,34.47,0,0,1,12.11-14.3q7.62-5,19.63-5,12.44,0,19.4,5.39t9.19,16.59h.45q4.48-10.87,12.51-16.43t20.46-5.55q15.15,0,22.49,7.91t7.35,22.6V226h16.26v9h-51.59v-9h15.14V163.71q0-8.86-4-13.07t-11.44-4.2a22.15,22.15,0,0,0-10.15,2.41,23.52,23.52,0,0,0-8.41,7.46A38.73,38.73,0,0,0,1279,169.2a73.7,73.7,0,0,0-2.07,18.62V226h15.14v9h-50.47v-9h15.14V163.59q0-8.75-4-13t-11.44-4.2a22.18,22.18,0,0,0-10.15,2.41,23.6,23.6,0,0,0-8.41,7.46A38.93,38.93,0,0,0,1217,169.2a73.7,73.7,0,0,0-2.07,18.62Z" transform="translate(-40.57 -57)"/><path class="a" d="M1458.37,204.53q-3.58,16.26-13.9,24.9t-26.81,8.63a48.78,48.78,0,0,1-20.18-4,44.42,44.42,0,0,1-15-10.82,47.14,47.14,0,0,1-9.42-16,57.6,57.6,0,0,1-3.26-19.46,59,59,0,0,1,3.37-20,48.93,48.93,0,0,1,9.59-16.38,46.31,46.31,0,0,1,14.91-11,45.12,45.12,0,0,1,19.46-4.1,43.27,43.27,0,0,1,17.72,3.48,38.31,38.31,0,0,1,13.35,9.7,43.59,43.59,0,0,1,8.46,14.86,62.2,62.2,0,0,1,3.2,19H1392.2c-.07,1.28-.11,2.12-.11,2.53v.73q0,13.23,2,21.53t5.49,12.95a17.84,17.84,0,0,0,8.41,6.34,33.06,33.06,0,0,0,10.82,1.68,36.12,36.12,0,0,0,10.38-1.46A25.26,25.26,0,0,0,1438,223a30,30,0,0,0,6.9-8.3,46.88,46.88,0,0,0,4.76-12.28,32,32,0,0,1,4.49.78A36.64,36.64,0,0,1,1458.37,204.53Zm-21.19-29.94a66.07,66.07,0,0,0-2-15.09,24.52,24.52,0,0,0-4.31-9,13.71,13.71,0,0,0-6.34-4.43,26.12,26.12,0,0,0-8-1.17,26.51,26.51,0,0,0-8.58,1.34,17.29,17.29,0,0,0-7.12,4.71,26.23,26.23,0,0,0-5.21,9.09,58.2,58.2,0,0,0-2.86,14.58Z" transform="translate(-40.57 -57)"/><circle cx="100.14" cy="90.49" r="12.86"/></svg>
