<svg xmlns="http://www.w3.org/2000/svg" viewBox="0 0 1862.04 1734.5"><defs><style>.a{fill:#3c4eb5;}</style></defs><title>liadi_footer</title><path class="a" d="M1920.67,1050.24l6.12-5.47L1000,109.5,519.63,594.3v-234h51v-51H196.54v51h68V851.71L73.25,1044.77l6.11,5.47a106.12,106.12,0,0,0,151.81,135.82l3.63,3.25L1000,407.18l765.22,782.13,3.63-3.25a106.1,106.1,0,0,0,151.8-135.82Z" transform="translate(-69 -109.5)"/><path class="a" d="M319.82,1206.32,566.39,1844l276.33-4.25V1448.64s8.51-161.55,195.56-161.55c170,0,174.3,148.79,174.3,148.79V1844h272.08l221.06-637.68-697.2-722.71ZM1123.3,955.49a119,119,0,1,1-119-119A119,119,0,0,1,1123.3,955.49Z" transform="translate(-69 -109.5)"/></svg>
