<svg xmlns="http://www.w3.org/2000/svg" viewBox="0 0 1717 221.58"><defs><style>.a{fill:#3c4eb5;}.b{fill:#fff;}</style></defs><title>liadi_home</title><path class="a" d="M1170,1090.23V918H1143.3V907.29h79.28V918h-26.64v77.14h89.14V918h-26.65V907.29h79.28V918h-26.65v172.28h26.65v10.66h-79.28v-10.66h26.65V1006h-89.14v84.21h26.64v10.66H1143.3v-10.66Z" transform="translate(-141 -889.5)"/><path class="a" d="M1357.7,1045.19a71.06,71.06,0,0,1,3.93-23.71,57,57,0,0,1,11.52-19.59,54.34,54.34,0,0,1,18.59-13.26,61.21,61.21,0,0,1,25-4.86,60,60,0,0,1,24.52,4.73,51.16,51.16,0,0,1,17.86,12.86,55,55,0,0,1,10.86,18.92,73.54,73.54,0,0,1-.27,46.63,56.85,56.85,0,0,1-11.53,19.59,54.3,54.3,0,0,1-18.58,13.26,61.22,61.22,0,0,1-25,4.86,60,60,0,0,1-24.52-4.73,51.22,51.22,0,0,1-17.85-12.86,54.54,54.54,0,0,1-10.86-18.92A70.84,70.84,0,0,1,1357.7,1045.19Zm26.38-.53a120.69,120.69,0,0,0,2,24.12q2,9.59,5.86,15.32a21,21,0,0,0,9.73,8.06,40.93,40.93,0,0,0,27.45-.06,22,22,0,0,0,10-8.2q4-5.79,6.06-15.59a146.71,146.71,0,0,0,.07-48.7q-2-9.58-5.86-15.32a20.94,20.94,0,0,0-9.8-8.06,37,37,0,0,0-13.66-2.34,36.6,36.6,0,0,0-13.79,2.4,21.94,21.94,0,0,0-9.92,8.2q-4,5.79-6.07,15.59A122.56,122.56,0,0,0,1384.08,1044.66Z" transform="translate(-141 -889.5)"/><path class="a" d="M1536.24,1090.23h18v10.66h-62v-10.66h20V998h-20V987.37h44v19.32h.54a40.87,40.87,0,0,1,14.39-17q9.06-5.93,23.32-5.93,14.79,0,23,6.39t10.92,19.72h.54q5.32-12.92,14.85-19.52t24.32-6.59q18,0,26.72,9.39t8.72,26.85v70.22h19.32v10.66h-61.29v-10.66h18v-74q0-10.53-4.8-15.52t-13.59-5a26.5,26.5,0,0,0-12.06,2.86,28.16,28.16,0,0,0-10,8.87,46.12,46.12,0,0,0-6.8,15.32,87.49,87.49,0,0,0-2.46,22.12v45.3h18v10.66h-60v-10.66h18v-74.08q0-10.39-4.8-15.39t-13.59-5a26.44,26.44,0,0,0-12.06,2.86,28.1,28.1,0,0,0-10,8.87,46.11,46.11,0,0,0-6.79,15.32,87.46,87.46,0,0,0-2.47,22.12Z" transform="translate(-141 -889.5)"/><path class="a" d="M1825.52,1064.78q-4.26,19.32-16.52,29.58t-31.85,10.26a58,58,0,0,1-24-4.73,52.87,52.87,0,0,1-17.86-12.86,56,56,0,0,1-11.19-19,68.37,68.37,0,0,1-3.86-23.12,70.11,70.11,0,0,1,4-23.72,58.39,58.39,0,0,1,11.39-19.45,54.92,54.92,0,0,1,17.73-13.13,53.6,53.6,0,0,1,23.11-4.86,51.56,51.56,0,0,1,21.06,4.13,45.45,45.45,0,0,1,15.85,11.52,51.72,51.72,0,0,1,10.06,17.66,73.71,73.71,0,0,1,3.8,22.52H1746.9c-.09,1.51-.13,2.51-.13,3v.86q0,15.72,2.33,25.59t6.53,15.38a21.11,21.11,0,0,0,10,7.53,39,39,0,0,0,12.85,2,42.68,42.68,0,0,0,12.33-1.73,30,30,0,0,0,10.46-5.53,35.58,35.58,0,0,0,8.19-9.86,55.86,55.86,0,0,0,5.67-14.59,38.4,38.4,0,0,1,5.33.93A44,44,0,0,1,1825.52,1064.78Zm-25.18-35.58a78.63,78.63,0,0,0-2.34-17.92,28.8,28.8,0,0,0-5.13-10.72,16.17,16.17,0,0,0-7.52-5.27,31,31,0,0,0-9.53-1.4,31.77,31.77,0,0,0-10.19,1.6,20.57,20.57,0,0,0-8.47,5.6,31.33,31.33,0,0,0-6.19,10.79,69.42,69.42,0,0,0-3.4,17.32Z" transform="translate(-141 -889.5)"/><path class="a" d="M172.11,1029.22l31.65,81.86,35.48-.54v-50.21s1.09-20.74,25.1-20.74c21.84,0,22.38,19.1,22.38,19.1v52.39h34.93L350,1029.22l-89.51-92.78Z" transform="translate(-141 -889.5)"/><path class="a" d="M378.72,1010.27l.78-.7-119-120.07-61.67,62.24v-30h6.55v-6.55h-48v6.55h8.74v63.08l-24.56,24.79.78.7a13.63,13.63,0,0,0,19.49,17.44l.47.42,98.23-100.41,98.24,100.41.47-.42a13.62,13.62,0,0,0,19.49-17.44Z" transform="translate(-141 -889.5)"/><path class="a" d="M1823.89,978.81c-19.27.47-34.39-16.46-34.28-34.07.1-15.62,11.76-33.79,33.57-34.19a34.13,34.13,0,1,1,.71,68.26Zm.19-6.77a27.33,27.33,0,0,0,27.23-27.33c0-15.08-12.3-27.57-27.12-27.51a27.42,27.42,0,1,0-.11,54.84Z" transform="translate(-141 -889.5)"/><path class="a" d="M1829.43,947.1c5.2,4.24,7.34,10.13,10.86,15.62h-9.07c-.78-1.47-1.61-3.08-2.5-4.65-1.15-2-2.29-4.06-3.55-6-2-3.13-4.87-4.42-8.94-3.68-.29,4.64,0,9.36-.19,14.29H1809V926.82c.89-.08,1.68-.2,2.47-.21,4.66,0,9.32-.08,14,0a24.54,24.54,0,0,1,6,.78c4.11,1.14,6.44,4.35,6.72,8.74.3,4.7-1.57,7.92-5.68,9.74-.46.21-1,.36-1.42.54S1830.09,946.82,1829.43,947.1Zm-13.16-5.28c2.82.56,8.43.54,10.35,0,2.53-.72,3.74-2.18,3.73-4.5s-1.16-3.68-3.55-4.31c-3.45-.91-7-.61-10.53-.43Z" transform="translate(-141 -889.5)"/><path class="b" d="M549.56,1090.23q10.4,0,18.26-.8a55.71,55.71,0,0,0,13.79-3,30.35,30.35,0,0,0,10.19-6.12,34.05,34.05,0,0,0,7.33-10.2,75.7,75.7,0,0,0,5.26-15.26,216.14,216.14,0,0,0,3.93-21.38h9.33l-2.93,67.42H465.62v-10.66h26.65V918H465.62V907.29H544.9V918H518.25v172.28Z" transform="translate(-141 -889.5)"/><path class="b" d="M678.28,1090.23h20v10.66h-64v-10.66h20V998h-20V987.37h44Zm-12-140.44a17.18,17.18,0,0,1-6.33-1.13,15.29,15.29,0,0,1-5.07-3.27,14.78,14.78,0,0,1-3.39-5,16.62,16.62,0,0,1-1.2-6.47,16,16,0,0,1,1.26-6.39,16.26,16.26,0,0,1,3.4-5.06,15.29,15.29,0,0,1,5.06-3.34,16.42,16.42,0,0,1,6.27-1.19,17.13,17.13,0,0,1,6.26,1.13,15,15,0,0,1,8.53,8.26,16.57,16.57,0,0,1,1.2,6.46,16.36,16.36,0,0,1-1.27,6.53,15.43,15.43,0,0,1-3.4,5,15.73,15.73,0,0,1-5.06,3.26A16.38,16.38,0,0,1,666.29,949.79Z" transform="translate(-141 -889.5)"/><path class="b" d="M829,1100.89a79.86,79.86,0,0,1-10.4,1.33q-4.79.27-7.59.27a50.23,50.23,0,0,1-11.66-1.13,18.83,18.83,0,0,1-7.26-3.27,12.19,12.19,0,0,1-3.86-5.19,23.19,23.19,0,0,1-1.47-6.8h-.67a47.5,47.5,0,0,1-8,8.79,39,39,0,0,1-8.93,5.73,41.69,41.69,0,0,1-9.53,3.07,52,52,0,0,1-9.79.93,44.39,44.39,0,0,1-14.52-2.2,30.63,30.63,0,0,1-10.8-6.19,26.1,26.1,0,0,1-6.66-9.53,31.88,31.88,0,0,1-2.26-12.19q0-18.52,18.18-28.18T786.21,1036c.08-4,.15-7.59.2-10.79s.06-6.35.06-9.46q0-12.12-5-17t-15.79-4.87a47.57,47.57,0,0,0-12.86,1.6,28.44,28.44,0,0,0-9.26,4.27,20.87,20.87,0,0,1,4.73,6.46,16.28,16.28,0,0,1,1.53,6.73,12.91,12.91,0,0,1-3.6,9.33q-3.59,3.72-9.86,3.73a17.2,17.2,0,0,1-5.19-.8,11.54,11.54,0,0,1-4.4-2.53,12.93,12.93,0,0,1-3-4.34,15.13,15.13,0,0,1-1.13-6.06,20.71,20.71,0,0,1,3-10.59,28.6,28.6,0,0,1,8.92-9.13,49.79,49.79,0,0,1,14.79-6.39,79.77,79.77,0,0,1,20.72-2.4,70,70,0,0,1,17,1.86,30.82,30.82,0,0,1,12.53,6.2,26.55,26.55,0,0,1,7.73,11.53q2.59,7.18,2.6,17.85c0,1.78,0,4.69-.07,8.73s-.11,8.5-.2,13.39-.16,9.84-.2,14.86-.07,9.44-.07,13.25.09,7.18.27,9.8a18.35,18.35,0,0,0,1.33,6.26,6.51,6.51,0,0,0,3.2,3.33,14.39,14.39,0,0,0,6,1,64.39,64.39,0,0,0,8.8-.8ZM786.21,1046a143.3,143.3,0,0,0-23.45,2.2q-8.94,1.8-13.86,5.07a16.34,16.34,0,0,0-6.66,7.92,30.4,30.4,0,0,0-1.74,10.66q0,10.4,4.33,15.53t11.93,5.13a29.17,29.17,0,0,0,9.26-1.74,28.67,28.67,0,0,0,9.66-5.66,30.61,30.61,0,0,0,7.53-10.33q3-6.39,3-15.85Z" transform="translate(-141 -889.5)"/><path class="b" d="M959.43,1090.23h20v10.66h-44v-16.12h-.53a44.2,44.2,0,0,1-7.53,9.52,38,38,0,0,1-8.59,6.13,34.61,34.61,0,0,1-9.46,3.27,53.85,53.85,0,0,1-10,.93,51.52,51.52,0,0,1-22.52-4.73,49.36,49.36,0,0,1-16.65-12.79,55.77,55.77,0,0,1-10.33-18.85,76.87,76.87,0,0,1,.34-47.11,58.67,58.67,0,0,1,11-19.52,52.39,52.39,0,0,1,17.05-13,50,50,0,0,1,22.06-4.8,41.79,41.79,0,0,1,20.52,4.86,37.53,37.53,0,0,1,14.12,13.66h.53V918H914.12V907.29h45.31Zm-86.75-45.84q0,15.19,2.13,24.85t6,15.19a20.09,20.09,0,0,0,9.26,7.6,32.67,32.67,0,0,0,11.79,2.07q10.13,0,16.59-4.4a31.61,31.61,0,0,0,10.26-11.59,52.74,52.74,0,0,0,5.27-16.33,117.82,117.82,0,0,0,1.46-18.58,92.1,92.1,0,0,0-2.46-23q-2.47-9.39-6.87-15.12a25.41,25.41,0,0,0-10.45-8.26,36,36,0,0,0-25.12-.54,20.34,20.34,0,0,0-9.46,7.53q-4,5.53-6.2,15.26T872.68,1044.39Z" transform="translate(-141 -889.5)"/><path class="b" d="M1037.37,1090.23h20v10.66h-64v-10.66h20V998h-20V987.37h44Zm-12-140.44a17.18,17.18,0,0,1-6.33-1.13,15.24,15.24,0,0,1-5.06-3.27,14.81,14.81,0,0,1-3.4-5,16.62,16.62,0,0,1-1.2-6.47,16.05,16.05,0,0,1,4.67-11.45,15.29,15.29,0,0,1,5.06-3.34,16.34,16.34,0,0,1,6.26-1.19,17.18,17.18,0,0,1,6.27,1.13,15,15,0,0,1,8.52,8.26,16.57,16.57,0,0,1,1.2,6.46,16.35,16.35,0,0,1-1.26,6.53,15.43,15.43,0,0,1-3.4,5,15.73,15.73,0,0,1-5.06,3.26A16.43,16.43,0,0,1,1025.38,949.79Z" transform="translate(-141 -889.5)"/><circle class="b" cx="118.98" cy="107.52" r="15.28"/></svg>